<svg class="hidden" xmlns="http://www.w3.org/2000/svg">
        <symbol viewBox="0 0 512 512" id="cameraRetro">
            <path d="M220.6 121.2L271.1 96 448 96v96H333.2c-21.9-15.1-48.5-24-77.2-24s-55.2 8.9-77.2 24H64V128H192c9.9 
            0 19.7-2.3 28.6-6.8zM0 128V416c0 35.3 28.7 64 64 64H448c35.3 
            0 64-28.7 64-64V96c0-35.3-28.7-64-64-64H271.1c-9.9 0-19.7 
            2.3-28.6 6.8L192 64H160V48c0-8.8-7.2-16-16-16H80c-8.8 0-16 
            7.2-16 16l0 16C28.7 64 0 92.7 0 128zM168 304a88 88 0 1 1 176 0 88 88 0 1 1 -176 0z" />
        </symbol>
        <symbol viewBox="0 0 640 512" id="truck">
            <path d="M112 0C85.5 0 64 21.5 64 48V96H16c-8.8 0-16 7.2-16 
                16s7.2 16 16 16H64 272c8.8 0 16 7.2 16 16s-7.2 16-16 16H64 
                48c-8.8 0-16 7.2-16 16s7.2 16 16 16H64 240c8.8 0 16 7.2 
                16 16s-7.2 16-16 16H64 16c-8.8 0-16 7.2-16 16s7.2 16 16 16H64 
                208c8.8 0 16 7.2 16 16s-7.2 16-16 16H64V416c0 53 43 96 96 
                96s96-43 96-96H384c0 53 43 96 96 96s96-43 96-96h32c17.7 0 
                32-14.3 32-32s-14.3-32-32-32V288 
                256 237.3c0-17-6.7-33.3-18.7-45.3L512 114.7c-12-12-28.3-18.7-45.3-18.7H416V48c0-26.5-21.5-48-48-48H112zM544 
                237.3V256H416V160h50.7L544 237.3zM160 368a48 48 0 1 1 0 96 48 48 0 1 1 
                0-96zm272 48a48 48 0 1 1 96 0 48 48 0 1 1 -96 0z" />
        </symbol>
        <symbol viewBox="0 0 640 512" id="city">
            <path d="M480 48c0-26.5-21.5-48-48-48H336c-26.5 0-48 21.5-48 
                48V96H224V24c0-13.3-10.7-24-24-24s-24 10.7-24 
                24V96H112V24c0-13.3-10.7-24-24-24S64 10.7 64 24V96H48C21.5 96 0 
                117.5 0 144v96V464c0 26.5 21.5 48 48 48H304h32 96H592c26.5 0 48-21.5 
                48-48V240c0-26.5-21.5-48-48-48H480V48zm96 320v32c0 8.8-7.2 16-16 
                16H528c-8.8 0-16-7.2-16-16V368c0-8.8 7.2-16 16-16h32c8.8 0 16 7.2 16 
                16zM240 416H208c-8.8 0-16-7.2-16-16V368c0-8.8 7.2-16 16-16h32c8.8 0 
                16 7.2 16 16v32c0 8.8-7.2 16-16 16zM128 400c0 8.8-7.2 16-16 16H80c-8.8 
                0-16-7.2-16-16V368c0-8.8 7.2-16 16-16h32c8.8 0 16 7.2 16 16v32zM560 256c8.8 
                0 16 7.2 16 16v32c0 8.8-7.2 16-16 16H528c-8.8 0-16-7.2-16-16V272c0-8.8 7.2-16 
                16-16h32zM256 176v32c0 8.8-7.2 16-16 16H208c-8.8 0-16-7.2-16-16V176c0-8.8 7.2-16 
                16-16h32c8.8 0 16 7.2 16 16zM112 160c8.8 0 16 7.2 16 16v32c0 8.8-7.2 16-16 
                16H80c-8.8 0-16-7.2-16-16V176c0-8.8 7.2-16 16-16h32zM256 304c0 8.8-7.2 16-16 
                16H208c-8.8 0-16-7.2-16-16V272c0-8.8 7.2-16 16-16h32c8.8 0 16 7.2 16 16v32zM112 
                320H80c-8.8 0-16-7.2-16-16V272c0-8.8 7.2-16 16-16h32c8.8 0 16 7.2 16 16v32c0 
                8.8-7.2 16-16 16zm304-48v32c0 8.8-7.2 16-16 16H368c-8.8 0-16-7.2-16-16V272c0-8.8 
                7.2-16 16-16h32c8.8 0 16 7.2 16 16zM400 64c8.8 0 16 7.2 16 16v32c0 8.8-7.2 16-16 
                16H368c-8.8 0-16-7.2-16-16V80c0-8.8 7.2-16 16-16h32zm16 112v32c0 8.8-7.2 16-16 
                16H368c-8.8 0-16-7.2-16-16V176c0-8.8 7.2-16 16-16h32c8.8 0 16 7.2 16 16z" />
        </symbol>
        <symbol viewbox ="0 0 448 512" id="snowflake">
            <path d="M223 0c13.3 0 24 10.7 24 24V70.1l23-23c9.4-9.4 24.6-9.4 33.9 
                0s9.4 24.6 0 33.9l-57 57v76.5l66.2-38.2 20.9-77.8c3.4-12.8 
                16.6-20.4 29.4-17s20.4 16.6 17 29.4L372 142.2l37.1-21.4c11.5-6.6 
                26.2-2.7 32.8 8.8s2.7 26.2-8.8 32.8L396 183.8l31.5 8.4c12.8 3.4 20.4 
                16.6 17 29.4s-16.6 20.4-29.4 17l-77.8-20.9L271 256l66.2 38.2 77.8-20.9c12.8-3.4 
                26 4.2 29.4 17s-4.2 26-17 29.4L396 328.2l37.1 21.4c11.5 6.6 15.4 
                21.3 8.8 32.8s-21.3 15.4-32.8 8.8L372 369.8l8.4 31.5c3.4 12.8-4.2 
                26-17 29.4s-26-4.2-29.4-17l-20.9-77.8L247 297.6v76.5l57 57c9.4 9.4 9.4 24.6 
                0 33.9s-24.6 9.4-33.9 0l-23-23V488c0 13.3-10.7 24-24 24s-24-10.7-24-24V441.9l-23 
                23c-9.4 9.4-24.6 9.4-33.9 0s-9.4-24.6 0-33.9l57-57V297.6l-66.2 38.2-20.9 
                77.8c-3.4 12.8-16.6 20.4-29.4 17s-20.4-16.6-17-29.4L74 369.8 36.9 391.2c-11.5 
                6.6-26.2 2.7-32.8-8.8s-2.7-26.2 8.8-32.8L50 328.2l-31.5-8.4c-12.8-3.4-20.4-16.6-17-29.4s16.6-20.4 
                29.4-17l77.8 20.9L175 256l-66.2-38.2L30.9 238.6c-12.8 3.4-26-4.2-29.4-17s4.2-26 
                17-29.4L50 183.8 12.9 162.4c-11.5-6.6-15.4-21.3-8.8-32.8s21.3-15.4 32.8-8.8L74 
                142.2l-8.4-31.5c-3.4-12.8 4.2-26 17-29.4s26 4.2 29.4 17l20.9 77.8L199 214.4V137.9L142 
                81c-9.4-9.4-9.4-24.6 0-33.9s24.6-9.4 33.9 0l23 23V24c0-13.3 10.7-24 24-24z" />
        </symbol>
    </svg>